<svg width="220" height="29" viewBox="0 0 220 29" fill="none" xmlns="http://www.w3.org/2000/svg">
<path d="M41.3975 2.97265H63.1878V5.39176H44.2863V13.1281H62.3291V15.5472H44.2863V26.187H41.3975V2.97265Z" fill="#430DD1"/>
<path d="M66.6305 26.1844V2.97265H69.5192V26.1844H66.6305Z" fill="#430DD1"/>
<path d="M83.6927 26.5144C81.7554 26.5144 80.1096 26.4159 78.7553 26.219C77.401 26.022 76.3065 25.6202 75.4743 25.0107C74.6421 24.4013 74.0352 23.4858 73.6536 22.267C73.272 21.0481 73.0811 19.422 73.0811 17.3862C73.0811 15.3503 73.272 13.8307 73.6536 12.6411C74.0352 11.4515 74.6421 10.5546 75.4743 9.95054C76.3065 9.34643 77.401 8.94191 78.7553 8.74232C80.1096 8.54006 81.7554 8.43893 83.6927 8.43893C85.6301 8.43893 87.2865 8.54006 88.6354 8.74232C89.9844 8.94457 91.0763 9.34643 91.9085 9.95054C92.7407 10.5546 93.3476 11.4515 93.7292 12.6411C94.1108 13.8307 94.3016 15.4115 94.3016 17.3862C94.3016 19.3608 94.1108 21.0481 93.7292 22.267C93.3476 23.4858 92.7407 24.4013 91.9085 25.0107C91.0763 25.6202 89.9844 26.022 88.6354 26.219C87.2865 26.4159 85.638 26.5144 83.6927 26.5144ZM91.4129 17.3888C91.4129 15.9491 91.3387 14.7941 91.1956 13.9292C91.0498 13.0642 90.7318 12.4096 90.2388 11.9731C89.7485 11.534 88.9826 11.2413 87.9437 11.0896C86.9048 10.9379 85.4869 10.8634 83.6927 10.8634C81.8985 10.8634 80.4912 10.9379 79.4497 11.0896C78.4055 11.2413 77.6396 11.5367 77.1466 11.9731C76.6537 12.4122 76.3357 13.0642 76.1899 13.9292C76.0441 14.7967 75.9726 15.9491 75.9726 17.3888C75.9726 18.8286 76.0441 20.0741 76.1899 20.9709C76.3357 21.8678 76.6537 22.5411 77.1466 22.9882C77.6369 23.4353 78.4055 23.7333 79.4497 23.8797C80.4939 24.0261 81.9091 24.0979 83.6927 24.0979C85.4763 24.0979 86.9048 24.0261 87.9437 23.8797C88.9826 23.7333 89.7459 23.4353 90.2388 22.9882C90.7291 22.5411 91.0498 21.8678 91.1956 20.9709C91.3413 20.0741 91.4129 18.8818 91.4129 17.3888Z" fill="#430DD1"/>
<path d="M101.72 26.1844L95.0676 8.77691H98.3486L103.631 23.8424H103.66L109.424 8.77691H112.313L118.016 23.8424H118.045L123.388 8.77691H126.669L120.017 26.1844H116.163L110.882 12.0849H110.852L105.57 26.1844H101.717H101.72Z" fill="#430DD1"/>
<path d="M129.841 26.1844V2.97265H132.73V26.1844H129.841Z" fill="#430DD1"/>
<path d="M136.777 5.87345V2.97265H139.666V5.87345H136.777ZM136.777 26.1844V9.74296H139.666V26.1844H136.777Z" fill="#430DD1"/>
<path d="M142.809 26.1844V8.77691H145.698V11.0896C146.13 10.5041 146.662 10.0171 147.301 9.6232C147.937 9.22933 148.791 8.93659 149.859 8.73966C150.927 8.54272 152.329 8.44425 154.065 8.44425C156.331 8.44425 158.119 8.66514 159.429 9.10957C160.738 9.55401 161.668 10.3444 162.219 11.4808C162.771 12.6198 163.046 14.2299 163.046 16.3163V26.1844H160.142V16.3163C160.142 15.1267 160.041 14.1713 159.839 13.4448C159.638 12.7183 159.296 12.17 158.809 11.7975C158.321 11.4249 157.653 11.1747 156.8 11.0496C155.946 10.9246 154.862 10.8607 153.55 10.8607C151.544 10.8607 149.967 11.0284 148.825 11.3584C147.68 11.691 146.875 12.2126 146.403 12.9232C145.931 13.6338 145.695 14.5572 145.695 15.6962V26.1844H142.806H142.809Z" fill="#430DD1"/>
<path d="M166.16 26.1844V2.97265H169.049V16.3775L180.562 8.77691H184.94L172.704 16.9524L185.42 26.1844H181.116L169.046 17.2531V26.1844H166.158H166.16Z" fill="#430DD1"/>
<path d="M205.887 21.0161C205.887 22.3149 205.694 23.3395 205.307 24.0846C204.92 24.8298 204.332 25.3753 203.539 25.716C202.747 26.0593 201.735 26.2775 200.507 26.3733C199.278 26.4691 197.817 26.517 196.121 26.517C194.184 26.517 192.543 26.4186 191.192 26.2216C189.843 26.0247 188.754 25.6228 187.927 25.0134C187.1 24.404 186.496 23.4885 186.122 22.2696C185.746 21.0508 185.557 19.4247 185.557 17.3888C185.557 15.3529 185.74 13.8334 186.106 12.6438C186.472 11.4542 187.068 10.5573 187.89 9.9532C188.711 9.34909 189.793 8.94457 191.134 8.74498C192.472 8.54272 194.11 8.44159 196.047 8.44159C198.265 8.44159 200.099 8.59861 201.554 8.90998C203.009 9.22135 204.096 9.81747 204.811 10.693C205.53 11.5686 205.887 12.854 205.887 14.5466V18.2804H188.459C188.47 19.5711 188.56 20.6037 188.73 21.3781C188.899 22.1525 189.241 22.738 189.753 23.1319C190.264 23.5257 191.03 23.7839 192.048 23.909C193.066 24.034 194.423 24.0979 196.119 24.0979C197.643 24.0979 198.875 24.0686 199.813 24.0074C200.751 23.9462 201.464 23.8132 201.949 23.6082C202.437 23.4007 202.763 23.092 202.935 22.6795C203.105 22.267 203.189 21.7134 203.189 21.0161H205.887ZM196.044 10.8607C194.409 10.8607 193.092 10.9219 192.093 11.0417C191.094 11.1614 190.336 11.3956 189.814 11.7442C189.292 12.0929 188.939 12.6092 188.754 13.2931C188.568 13.9771 188.47 14.8792 188.459 15.997H203.118V14.5466C203.118 13.82 203.036 13.2186 202.869 12.7396C202.702 12.2605 202.379 11.8826 201.899 11.6059C201.416 11.3291 200.706 11.1348 199.768 11.023C198.83 10.9113 197.59 10.8554 196.044 10.8554V10.8607Z" fill="#430DD1"/>
<path d="M209.15 26.1844V8.77691H212.039V11.1801C212.359 10.6664 212.683 10.238 213.009 9.89465C213.335 9.55135 213.761 9.27989 214.289 9.07764C214.816 8.87538 215.532 8.73167 216.433 8.64651C217.337 8.56135 218.524 8.51877 220 8.51877V10.9512C218.012 10.9512 216.475 11.023 215.389 11.1614C214.299 11.3025 213.52 11.542 213.048 11.88C212.577 12.2179 212.29 12.6837 212.19 13.2771C212.089 13.8706 212.039 14.6264 212.039 15.5446V26.1844H209.15Z" fill="#430DD1"/>
<path d="M16.252 0L6.26324 20.1459H26.2408L21.9023 29H11.2536C6.90195 28.7019 4.30736 24.0873 6.17843 20.1459C4.1934 20.2311 2.29317 19.1586 1.15887 17.5591C-0.0893934 15.8 -0.338517 13.5805 0.456556 11.5739L6.18108 0H16.2546H16.252Z" fill="#430DD1"/>
</svg>
